<svg width="64" height="64" viewBox="0 0 64 64" fill="none" xmlns="http://www.w3.org/2000/svg">
<circle cx="32" cy="32" r="31.5" fill="white" stroke="#AEDEFF"/>
<circle cx="32" cy="32" r="28" fill="#AEDEFF"/>
<g clip-path="url(#clip0_14681_1309)">
<path fill-rule="evenodd" clip-rule="evenodd" d="M18.6665 32.0003H21.6294V42.3707C21.6294 43.1565 21.9416 43.9102 22.4972 44.4658C23.0529 45.0215 23.8065 45.3337 24.5924 45.3337H39.4072C40.193 45.3337 40.9466 45.0215 41.5023 44.4658C42.058 43.9102 42.3701 43.1565 42.3701 42.3707V32.0003H42.3702H45.3332L31.9998 18.667L18.6665 32.0003Z" fill="white"/>
<path d="M21.6294 32.0003H22.6294C22.6294 31.448 22.1817 31.0003 21.6294 31.0003V32.0003ZM18.6665 32.0003L17.9594 31.2932C17.6734 31.5792 17.5878 32.0093 17.7426 32.383C17.8974 32.7567 18.262 33.0003 18.6665 33.0003V32.0003ZM22.4972 44.4658L23.2043 43.7587L22.4972 44.4658ZM41.5023 44.4658L40.7952 43.7587L40.7952 43.7587L41.5023 44.4658ZM42.3701 32.0003V31.0003C41.8179 31.0003 41.3701 31.448 41.3701 32.0003H42.3701ZM45.3332 32.0003V33.0003C45.7376 33.0003 46.1023 32.7567 46.2571 32.383C46.4118 32.0093 46.3263 31.5792 46.0403 31.2932L45.3332 32.0003ZM31.9998 18.667L32.7069 17.9599C32.3164 17.5694 31.6833 17.5694 31.2927 17.9599L31.9998 18.667ZM21.6294 31.0003H18.6665V33.0003H21.6294V31.0003ZM20.6294 32.0003V42.3707H22.6294V32.0003H20.6294ZM20.6294 42.3707C20.6294 43.4217 21.0469 44.4297 21.7901 45.1729L23.2043 43.7587C22.8362 43.3906 22.6294 42.8913 22.6294 42.3707H20.6294ZM21.7901 45.1729C22.5333 45.9161 23.5413 46.3337 24.5924 46.3337V44.3337C24.0717 44.3337 23.5725 44.1268 23.2043 43.7587L21.7901 45.1729ZM24.5924 46.3337H39.4072V44.3337H24.5924V46.3337ZM39.4072 46.3337C40.4582 46.3337 41.4662 45.9161 42.2094 45.1729L40.7952 43.7587C40.4271 44.1268 39.9278 44.3337 39.4072 44.3337V46.3337ZM42.2094 45.1729C42.9526 44.4297 43.3701 43.4217 43.3701 42.3707H41.3701C41.3701 42.8913 41.1633 43.3906 40.7952 43.7587L42.2094 45.1729ZM43.3701 42.3707V32.0003H41.3701V42.3707H43.3701ZM42.3702 31.0003H42.3701V33.0003H42.3702V31.0003ZM45.3332 31.0003H42.3702V33.0003H45.3332V31.0003ZM31.2927 19.3741L44.6261 32.7074L46.0403 31.2932L32.7069 17.9599L31.2927 19.3741ZM19.3736 32.7074L32.7069 19.3741L31.2927 17.9599L17.9594 31.2932L19.3736 32.7074Z" fill="white"/>
<path d="M28 34.0007L30.6667 36.6673L36 31.334" stroke="#0189E4" stroke-width="2" stroke-linecap="round" stroke-linejoin="round"/>
</g>
<path d="M40 40H64V52C64 58.6274 58.6274 64 52 64C45.3726 64 40 58.6274 40 52V40Z" fill="#E01D30"/>
<path d="M56.36 46.7801L52.6934 45.4068C52.3134 45.2668 51.6934 45.2668 51.3134 45.4068L47.6467 46.7801C46.94 47.0468 46.3667 47.8734 46.3667 48.6268V54.0268C46.3667 54.5668 46.72 55.2801 47.1534 55.6001L50.82 58.3401C51.4667 58.8268 52.5267 58.8268 53.1734 58.3401L56.84 55.6001C57.2734 55.2734 57.6267 54.5668 57.6267 54.0268V48.6268C57.6334 47.8734 57.06 47.0468 56.36 46.7801ZM52.5 52.5801V54.3334C52.5 54.6068 52.2734 54.8334 52 54.8334C51.7267 54.8334 51.5 54.6068 51.5 54.3334V52.5801C50.8267 52.3668 50.3334 51.7401 50.3334 51.0001C50.3334 50.0801 51.08 49.3334 52 49.3334C52.92 49.3334 53.6667 50.0801 53.6667 51.0001C53.6667 51.7468 53.1734 52.3668 52.5 52.5801Z" fill="white"/>
<defs>
<clipPath id="clip0_14681_1309">
<rect width="32" height="32" fill="white" transform="translate(16 16)"/>
</clipPath>
</defs>
</svg>
