<svg width="64" height="64" viewBox="0 0 64 64" fill="none" xmlns="http://www.w3.org/2000/svg">
<circle cx="32" cy="32" r="31.5" fill="white" stroke="#AEDEFF"/>
<circle cx="32" cy="32" r="28" fill="#AEDEFF"/>
<rect x="40" y="40" width="24" height="24" rx="12" fill="#E01D30"/>
<path d="M52.0002 45.3335C48.3202 45.3335 45.3335 48.3202 45.3335 52.0002C45.3335 55.6802 48.3202 58.6668 52.0002 58.6668C55.6802 58.6668 58.6668 55.6802 58.6668 52.0002C58.6668 48.3202 55.6802 45.3335 52.0002 45.3335ZM49.8202 49.1068C50.3602 49.1068 50.8068 49.5468 50.8068 50.0935C50.8068 50.6335 50.3668 51.0802 49.8202 51.0802C49.2802 51.0802 48.8335 50.6402 48.8335 50.0935C48.8335 49.5468 49.2735 49.1068 49.8202 49.1068ZM49.9002 54.5335C49.8002 54.6335 49.6735 54.6802 49.5468 54.6802C49.4202 54.6802 49.2935 54.6335 49.1935 54.5335C49.0002 54.3402 49.0002 54.0202 49.1935 53.8268L53.5602 49.4602C53.7535 49.2668 54.0735 49.2668 54.2668 49.4602C54.4602 49.6535 54.4602 49.9735 54.2668 50.1668L49.9002 54.5335ZM54.1802 54.8935C53.6402 54.8935 53.1935 54.4535 53.1935 53.9068C53.1935 53.3668 53.6335 52.9202 54.1802 52.9202C54.7202 52.9202 55.1668 53.3602 55.1668 53.9068C55.1668 54.4535 54.7268 54.8935 54.1802 54.8935Z" fill="white"/>
<g clip-path="url(#clip0_14710_1177)">
<g filter="url(#filter0_d_14710_1177)">
<path d="M22.6665 44V22.6667C22.6665 21.9594 22.9475 21.2811 23.4476 20.781C23.9476 20.281 24.6259 20 25.3332 20H38.6665C39.3737 20 40.052 20.281 40.5521 20.781C41.0522 21.2811 41.3332 21.9594 41.3332 22.6667V44L37.3332 41.3333L34.6665 44L31.9998 41.3333L29.3332 44L26.6665 41.3333L22.6665 44Z" fill="white"/>
<path d="M22.6665 44V22.6667C22.6665 21.9594 22.9475 21.2811 23.4476 20.781C23.9476 20.281 24.6259 20 25.3332 20H38.6665C39.3737 20 40.052 20.281 40.5521 20.781C41.0522 21.2811 41.3332 21.9594 41.3332 22.6667V44L37.3332 41.3333L34.6665 44L31.9998 41.3333L29.3332 44L26.6665 41.3333L22.6665 44Z" stroke="white" stroke-width="2" stroke-linecap="round" stroke-linejoin="round"/>
</g>
<g filter="url(#filter1_d_14710_1177)">
<path d="M34.6668 26.6665H31.3335C30.8031 26.6665 30.2944 26.8772 29.9193 27.2523C29.5442 27.6274 29.3335 28.1361 29.3335 28.6665C29.3335 29.1969 29.5442 29.7056 29.9193 30.0807C30.2944 30.4558 30.8031 30.6665 31.3335 30.6665H32.6668C33.1973 30.6665 33.706 30.8772 34.081 31.2523C34.4561 31.6274 34.6668 32.1361 34.6668 32.6665C34.6668 33.1969 34.4561 33.7056 34.081 34.0807C33.706 34.4558 33.1973 34.6665 32.6668 34.6665H29.3335M32.0002 34.6665V36.6665M32.0002 24.6665V26.6665" stroke="#0189E4" stroke-width="2" stroke-linecap="round" stroke-linejoin="round" shape-rendering="crispEdges"/>
</g>
</g>
<defs>
<filter id="filter0_d_14710_1177" x="19.6665" y="17" width="28.6667" height="34" filterUnits="userSpaceOnUse" color-interpolation-filters="sRGB">
<feFlood flood-opacity="0" result="BackgroundImageFix"/>
<feColorMatrix in="SourceAlpha" type="matrix" values="0 0 0 0 0 0 0 0 0 0 0 0 0 0 0 0 0 0 127 0" result="hardAlpha"/>
<feOffset dx="2" dy="2"/>
<feGaussianBlur stdDeviation="2"/>
<feComposite in2="hardAlpha" operator="out"/>
<feColorMatrix type="matrix" values="0 0 0 0 0.439216 0 0 0 0 0.396078 0 0 0 0 0.941176 0 0 0 0.1 0"/>
<feBlend mode="normal" in2="BackgroundImageFix" result="effect1_dropShadow_14710_1177"/>
<feBlend mode="normal" in="SourceGraphic" in2="effect1_dropShadow_14710_1177" result="shape"/>
</filter>
<filter id="filter1_d_14710_1177" x="26.3335" y="21.6665" width="15.3335" height="22" filterUnits="userSpaceOnUse" color-interpolation-filters="sRGB">
<feFlood flood-opacity="0" result="BackgroundImageFix"/>
<feColorMatrix in="SourceAlpha" type="matrix" values="0 0 0 0 0 0 0 0 0 0 0 0 0 0 0 0 0 0 127 0" result="hardAlpha"/>
<feOffset dx="2" dy="2"/>
<feGaussianBlur stdDeviation="2"/>
<feComposite in2="hardAlpha" operator="out"/>
<feColorMatrix type="matrix" values="0 0 0 0 0.439216 0 0 0 0 0.396078 0 0 0 0 0.941176 0 0 0 0.1 0"/>
<feBlend mode="normal" in2="BackgroundImageFix" result="effect1_dropShadow_14710_1177"/>
<feBlend mode="normal" in="SourceGraphic" in2="effect1_dropShadow_14710_1177" result="shape"/>
</filter>
<clipPath id="clip0_14710_1177">
<rect width="32" height="32" fill="white" transform="translate(16 16)"/>
</clipPath>
</defs>
</svg>
