<svg width="64" height="64" viewBox="0 0 64 64" fill="none" xmlns="http://www.w3.org/2000/svg">
<circle cx="32" cy="32" r="31.5" fill="white" stroke="#AEDEFF"/>
<circle cx="32" cy="32" r="28" fill="#AEDEFF"/>
<path d="M40 51C40 49.741 40.5928 48.5554 41.6 47.8L49.6 41.8C51.0222 40.7333 52.9778 40.7333 54.4 41.8L62.4 47.8C63.4072 48.5554 64 49.741 64 51V64H40V51Z" fill="#E01D30"/>
<path d="M50.6667 55.3335C50.3934 55.3335 50.1667 55.5602 50.1667 55.8335V56.8335C50.1667 57.1068 50.3934 57.3335 50.6667 57.3335C50.9401 57.3335 51.1667 57.1068 51.1667 56.8335V55.8335C51.1667 55.5602 50.9401 55.3335 50.6667 55.3335Z" fill="white"/>
<path d="M58.6666 59.1668H57.9999V51.6535C57.9999 51.2401 57.8133 50.8535 57.4866 50.6001L52.8199 46.9735C52.3399 46.5935 51.6599 46.5935 51.1799 46.9735L46.5133 50.6001C46.1866 50.8535 45.9999 51.2401 45.9999 51.6468L45.9666 59.1668H45.3333C45.0599 59.1668 44.8333 59.3868 44.8333 59.6668C44.8333 59.9401 45.0599 60.1668 45.3333 60.1668H58.6666C58.9399 60.1668 59.1666 59.9401 59.1666 59.6668C59.1666 59.3868 58.9399 59.1668 58.6666 59.1668ZM50.9999 49.5001H52.9999C53.2733 49.5001 53.4999 49.7268 53.4999 50.0001C53.4999 50.2735 53.2733 50.5001 52.9999 50.5001H50.9999C50.7266 50.5001 50.4999 50.2735 50.4999 50.0001C50.4999 49.7268 50.7266 49.5001 50.9999 49.5001ZM55.3333 59.1668H48.6666V53.3335C48.6666 52.7801 49.1133 52.3335 49.6666 52.3335H54.3333C54.8866 52.3335 55.3333 52.7801 55.3333 53.3335V59.1668Z" fill="white"/>
<g clip-path="url(#clip0_14710_1201)">
<g filter="url(#filter0_d_14710_1201)">
<path d="M21.3335 26.6668V24.0002C21.3335 23.2929 21.6144 22.6146 22.1145 22.1145C22.6146 21.6144 23.2929 21.3335 24.0002 21.3335H26.6668" stroke="white" stroke-width="2" stroke-linecap="round" stroke-linejoin="round" shape-rendering="crispEdges"/>
</g>
<g filter="url(#filter1_d_14710_1201)">
<path d="M21.3335 37.3335V40.0002C21.3335 40.7074 21.6144 41.3857 22.1145 41.8858C22.6146 42.3859 23.2929 42.6668 24.0002 42.6668H26.6668" stroke="white" stroke-width="2" stroke-linecap="round" stroke-linejoin="round" shape-rendering="crispEdges"/>
</g>
<path d="M37.3333 21.3335H39.9999C40.7072 21.3335 41.3854 21.6144 41.8855 22.1145C42.3856 22.6146 42.6666 23.2929 42.6666 24.0002V26.6668" stroke="white" stroke-width="2" stroke-linecap="round" stroke-linejoin="round"/>
<path d="M37.3333 42.6668H39.9999C40.7072 42.6668 41.3854 42.3859 41.8855 41.8858C42.3856 41.3857 42.6666 40.7074 42.6666 40.0002V37.3335" stroke="white" stroke-width="2" stroke-linecap="round" stroke-linejoin="round"/>
<path d="M31.9998 40L27.3332 33.3333C26.8839 32.5213 26.6543 31.6062 26.667 30.6784C26.6797 29.7505 26.9343 28.842 27.4055 28.0426C27.8768 27.2433 28.5485 26.5807 29.3543 26.1204C30.16 25.6601 31.0719 25.418 31.9998 25.418C32.9278 25.418 33.8397 25.6601 34.6454 26.1204C35.4512 26.5807 36.1228 27.2433 36.5941 28.0426C37.0654 28.842 37.32 29.7505 37.3327 30.6784C37.3454 31.6062 37.1157 32.5213 36.6665 33.3333L31.9998 40Z" fill="white" stroke="white" stroke-width="2" stroke-linecap="round" stroke-linejoin="round"/>
<path d="M32 30.6665V30.6798" stroke="#0189E4" stroke-width="6" stroke-linecap="round" stroke-linejoin="round"/>
</g>
<defs>
<filter id="filter0_d_14710_1201" x="18.3335" y="18.3335" width="15.3335" height="15.3335" filterUnits="userSpaceOnUse" color-interpolation-filters="sRGB">
<feFlood flood-opacity="0" result="BackgroundImageFix"/>
<feColorMatrix in="SourceAlpha" type="matrix" values="0 0 0 0 0 0 0 0 0 0 0 0 0 0 0 0 0 0 127 0" result="hardAlpha"/>
<feOffset dx="2" dy="2"/>
<feGaussianBlur stdDeviation="2"/>
<feComposite in2="hardAlpha" operator="out"/>
<feColorMatrix type="matrix" values="0 0 0 0 0.439216 0 0 0 0 0.396078 0 0 0 0 0.941176 0 0 0 0.1 0"/>
<feBlend mode="normal" in2="BackgroundImageFix" result="effect1_dropShadow_14710_1201"/>
<feBlend mode="normal" in="SourceGraphic" in2="effect1_dropShadow_14710_1201" result="shape"/>
</filter>
<filter id="filter1_d_14710_1201" x="18.3335" y="34.3335" width="15.3335" height="15.3335" filterUnits="userSpaceOnUse" color-interpolation-filters="sRGB">
<feFlood flood-opacity="0" result="BackgroundImageFix"/>
<feColorMatrix in="SourceAlpha" type="matrix" values="0 0 0 0 0 0 0 0 0 0 0 0 0 0 0 0 0 0 127 0" result="hardAlpha"/>
<feOffset dx="2" dy="2"/>
<feGaussianBlur stdDeviation="2"/>
<feComposite in2="hardAlpha" operator="out"/>
<feColorMatrix type="matrix" values="0 0 0 0 0.439216 0 0 0 0 0.396078 0 0 0 0 0.941176 0 0 0 0.1 0"/>
<feBlend mode="normal" in2="BackgroundImageFix" result="effect1_dropShadow_14710_1201"/>
<feBlend mode="normal" in="SourceGraphic" in2="effect1_dropShadow_14710_1201" result="shape"/>
</filter>
<clipPath id="clip0_14710_1201">
<rect width="32" height="32" fill="white" transform="translate(16 16)"/>
</clipPath>
</defs>
</svg>
