<svg width="20" height="20" viewBox="0 0 20 20" fill="none" xmlns="http://www.w3.org/2000/svg">
<path d="M17.8333 8.33333H6.16667V5.83333C6.16667 4.91417 6.91417 4.16667 7.83333 4.16667C8.7525 4.16667 9.5 4.91417 9.5 5.83333H11.1667C11.1667 3.995 9.67167 2.5 7.83333 2.5C5.995 2.5 4.5 3.995 4.5 5.83333V8.33333H2.83333C2.61232 8.33333 2.40036 8.42113 2.24408 8.57741C2.0878 8.73369 2 8.94565 2 9.16667V10.8333C2 13.005 3.395 14.8525 5.33333 15.5417V18.3333H7V15.8333H13.6667V18.3333H15.3333V15.5417C17.2717 14.8525 18.6667 13.005 18.6667 10.8333V9.16667C18.6667 8.94565 18.5789 8.73369 18.4226 8.57741C18.2663 8.42113 18.0543 8.33333 17.8333 8.33333ZM17 10.8333C17 12.6717 15.505 14.1667 13.6667 14.1667H7C5.16167 14.1667 3.66667 12.6717 3.66667 10.8333V10H17V10.8333Z" fill="#0189E4"/>
</svg>
