<svg width="20" height="20" viewBox="0 0 20 20" fill="none" xmlns="http://www.w3.org/2000/svg">
<path d="M17.8333 8.98317V6.6665C17.8333 5.2915 16.7083 4.1665 15.3333 4.1665H12C11.3583 4.1665 10.775 4.4165 10.3333 4.8165C9.89167 4.4165 9.30833 4.1665 8.66667 4.1665H5.33333C3.95833 4.1665 2.83333 5.2915 2.83333 6.6665V8.98317C2.325 9.4415 2 10.0998 2 10.8332V15.8332H3.66667V14.1665H17V15.8332H18.6667V10.8332C18.6667 10.0998 18.3417 9.4415 17.8333 8.98317ZM12 5.83317H15.3333C15.7917 5.83317 16.1667 6.20817 16.1667 6.6665V8.33317H11.1667V6.6665C11.1667 6.20817 11.5417 5.83317 12 5.83317ZM4.5 6.6665C4.5 6.20817 4.875 5.83317 5.33333 5.83317H8.66667C9.125 5.83317 9.5 6.20817 9.5 6.6665V8.33317H4.5V6.6665ZM3.66667 12.4998V10.8332C3.66667 10.3748 4.04167 9.99984 4.5 9.99984H16.1667C16.625 9.99984 17 10.3748 17 10.8332V12.4998H3.66667Z" fill="#0189E4"/>
</svg>
